<svg xmlns="http://www.w3.org/2000/svg" width="860" height="470" viewBox="0 0 860 470"><defs><linearGradient id="g" x1="0" y1="0" x2="1" y2="0"><stop offset="0" stop-color="#0288d1"/><stop offset="1" stop-color="#03a9f4"/></linearGradient><filter id="s" x="-5%" y="-5%" width="110%" height="120%"><feDropShadow dx="0" dy="6" stdDeviation="8" flood-color="#0f172a" flood-opacity=".18"/></filter></defs><rect width="860" height="470" fill="#f1f5f9"/><g filter="url(#s)"><rect x="20" y="20" width="820" height="392" rx="16" fill="#fff" stroke="none" stroke-width="1"/></g><path d="M36 20 h788 a16 16 0 0 1 16 16 v24 h-820 v-24 a16 16 0 0 1 16 -16z" fill="url(#g)"/><circle cx="44" cy="40" r="5.5" fill="#fff" opacity=".55"/><circle cx="62" cy="40" r="5.5" fill="#fff" opacity=".55"/><circle cx="80" cy="40" r="5.5" fill="#fff" opacity=".55"/><text x="102" y="45" font-family="'Malgun Gothic','Segoe UI',sans-serif" font-size="14.5" font-weight="700" fill="#fff" text-anchor="start">Home Assistant · 3ds 사이트에 연결</text><text x="48" y="104" font-family="'Malgun Gothic','Segoe UI',sans-serif" font-size="19" font-weight="700" fill="#0f172a" text-anchor="start">3ds 사이트에 연결</text><text x="48" y="130" font-family="'Malgun Gothic','Segoe UI',sans-serif" font-size="14" font-weight="400" fill="#475569" text-anchor="start">사이트의 「➕ 기기 연결」에 나오는 두 가지를 붙여 넣어요.</text><rect x="48" y="150" width="430" height="52" rx="8" fill="#f1f5f9" stroke="none" stroke-width="1"/><line x1="48" x2="478" y1="202" y2="202" stroke="#64748b" stroke-width="1.5"/><text x="60" y="169" font-family="'Malgun Gothic','Segoe UI',sans-serif" font-size="11.5" font-weight="400" fill="#64748b" text-anchor="start">사이트 주소</text><text x="60" y="190" font-family="'Malgun Gothic','Segoe UI',sans-serif" font-size="14.5" font-weight="400" fill="#0f172a" text-anchor="start">https://3ds.liveon.synology.me</text><rect x="48" y="218" width="430" height="52" rx="8" fill="#f1f5f9" stroke="none" stroke-width="1"/><line x1="48" x2="478" y1="270" y2="270" stroke="#64748b" stroke-width="1.5"/><text x="60" y="237" font-family="'Malgun Gothic','Segoe UI',sans-serif" font-size="11.5" font-weight="400" fill="#64748b" text-anchor="start">연결 코드</text><text x="60" y="258" font-family="'Malgun Gothic','Segoe UI',sans-serif" font-size="14.5" font-weight="400" fill="#0f172a" text-anchor="start">●●●●●●●●●●●●●●●●</text><rect x="43" y="145" width="440" height="62" rx="14" fill="none" stroke="#ef4444" stroke-width="3.5"/><circle cx="483" cy="145" r="14" fill="#ef4444" stroke="#fff" stroke-width="2.5"/><text x="483" y="150" font-family="'Malgun Gothic','Segoe UI',sans-serif" font-size="15" font-weight="700" fill="#fff" text-anchor="middle">2</text><rect x="43" y="213" width="440" height="62" rx="14" fill="none" stroke="#ef4444" stroke-width="3.5"/><circle cx="483" cy="213" r="14" fill="#ef4444" stroke="#fff" stroke-width="2.5"/><text x="483" y="218" font-family="'Malgun Gothic','Segoe UI',sans-serif" font-size="15" font-weight="700" fill="#fff" text-anchor="middle">3</text><rect x="384" y="296" width="94" height="38" rx="19" fill="#03a9f4" stroke="none" stroke-width="1"/><text x="431" y="321" font-family="'Malgun Gothic','Segoe UI',sans-serif" font-size="14" font-weight="700" fill="#fff" text-anchor="middle">확인</text><rect x="379" y="291" width="104" height="48" rx="14" fill="none" stroke="#ef4444" stroke-width="3.5"/><circle cx="483" cy="291" r="14" fill="#ef4444" stroke="#fff" stroke-width="2.5"/><text x="483" y="296" font-family="'Malgun Gothic','Segoe UI',sans-serif" font-size="15" font-weight="700" fill="#fff" text-anchor="middle">4</text><rect x="510" y="96" width="302" height="250" rx="14" fill="#eff6ff" stroke="#bfdbfe" stroke-width="1"/><text x="528" y="124" font-family="'Malgun Gothic','Segoe UI',sans-serif" font-size="13.5" font-weight="700" fill="#1e3a8a" text-anchor="start">사이트 · HA 연결</text><rect x="528" y="138" width="266" height="40" rx="10" fill="#2563eb" stroke="none" stroke-width="1"/><text x="544" y="164" font-family="'Malgun Gothic','Segoe UI',sans-serif" font-size="14" font-weight="700" fill="#fff" text-anchor="start">🏠 HA 연결</text><rect x="688" y="144" width="98" height="28" rx="14" fill="#fff" stroke="none" stroke-width="1"/><text x="737" y="163" font-family="'Malgun Gothic','Segoe UI',sans-serif" font-size="12" font-weight="700" fill="#1e3a8a" text-anchor="middle">➕ 기기 연결</text><text x="528" y="208" font-family="'Malgun Gothic','Segoe UI',sans-serif" font-size="13" font-weight="700" fill="#0f172a" text-anchor="start">사이트 주소</text><rect x="528" y="216" width="190" height="30" rx="8" fill="#fff" stroke="#cbd5e1" stroke-width="1"/><text x="538" y="236" font-family="'Malgun Gothic','Segoe UI',sans-serif" font-size="12.5" font-weight="400" fill="#0f172a" text-anchor="start">https://3ds.liveon…</text><rect x="726" y="216" width="68" height="30" rx="8" fill="#2563eb" stroke="none" stroke-width="1"/><text x="760" y="236" font-family="'Malgun Gothic','Segoe UI',sans-serif" font-size="12" font-weight="700" fill="#fff" text-anchor="middle">📋 복사</text><text x="528" y="274" font-family="'Malgun Gothic','Segoe UI',sans-serif" font-size="13" font-weight="700" fill="#0f172a" text-anchor="start">연결 코드</text><rect x="528" y="282" width="190" height="30" rx="8" fill="#fff" stroke="#cbd5e1" stroke-width="1"/><text x="538" y="302" font-family="'Malgun Gothic','Segoe UI',sans-serif" font-size="12.5" font-weight="400" fill="#0f172a" text-anchor="start">c0de…</text><rect x="726" y="282" width="68" height="30" rx="8" fill="#2563eb" stroke="none" stroke-width="1"/><text x="760" y="302" font-family="'Malgun Gothic','Segoe UI',sans-serif" font-size="12" font-weight="700" fill="#fff" text-anchor="middle">📋 복사</text><rect x="721" y="211" width="78" height="106" rx="14" fill="none" stroke="#ef4444" stroke-width="3.5"/><circle cx="799" cy="211" r="14" fill="#ef4444" stroke="#fff" stroke-width="2.5"/><text x="799" y="216" font-family="'Malgun Gothic','Segoe UI',sans-serif" font-size="15" font-weight="700" fill="#fff" text-anchor="middle">1</text><text x="430" y="446" font-family="'Malgun Gothic','Segoe UI',sans-serif" font-size="14" font-weight="400" fill="#475569" text-anchor="middle">① 사이트에서 두 가지를 복사 → ②③ Home Assistant 에 붙여 넣기 → ④ 확인</text></svg>